<svg id="Group_5852" xmlns="http://www.w3.org/2000/svg" width="180" height="53.3"><style>.st0{fill:#fff}</style><g id="Available_on_the_App_Store__black__SVG"><path id="Path_7373" class="st0" d="M178.8 47.1c0 2.8-2.3 5.1-5.1 5.1H6.3c-2.8 0-5.1-2.3-5.1-5.1V6.3c0-2.8 2.3-5.1 5.1-5.1h167.4c2.8 0 5.1 2.3 5.1 5.1v40.8z"/><path id="Path_7374" d="M173.7 53.3H6.3C2.8 53.3 0 50.5 0 47V6.3C0 2.8 2.8 0 6.3 0h167.4c3.5 0 6.3 2.8 6.3 6.3V47c0 3.5-2.8 6.3-6.3 6.3z" fill="#a6a6a6"/><path id="Path_7375" d="M178.8 47.1c0 2.8-2.3 5.1-5.1 5.1H6.3c-2.8 0-5.1-2.3-5.1-5.1V6.3c0-2.8 2.3-5.1 5.1-5.1h167.4c2.8 0 5.1 2.3 5.1 5.1v40.8z"/><path id="Path_7376" class="st0" d="M40.2 26.4c0-2.7 1.4-5.1 3.7-6.5-1.4-2-3.7-3.3-6.2-3.4-2.6-.3-5.2 1.6-6.5 1.6-1.4 0-3.4-1.5-5.6-1.5-2.9.1-5.6 1.7-7 4.3-3 5.2-.8 12.9 2.1 17.2 1.4 2.1 3.1 4.4 5.4 4.3 2.2-.1 3-1.4 5.6-1.4 2.6 0 3.4 1.4 5.6 1.3 2.3 0 3.8-2.1 5.2-4.2 1-1.5 1.8-3.1 2.4-4.8-2.9-1.2-4.7-3.9-4.7-6.9z"/><path id="Path_7377" class="st0" d="M35.9 13.7c1.3-1.5 1.9-3.5 1.7-5.5-1.9.2-3.7 1.1-5 2.6-1.3 1.4-1.9 3.3-1.8 5.3 2 .1 3.9-.8 5.1-2.4z"/><g id="Group_5271" transform="translate(56.604 24.012)"><path id="Path_7379" class="st0" d="M15 18h-3l-1.7-5.2H4.5L2.9 18H0L5.7.3h3.5L15 18zm-5.2-7.4L8.3 6c-.2-.5-.5-1.6-.9-3.4h-.1c-.1.8-.4 1.9-.8 3.4L5 10.6h4.8z"/><path id="Path_7380" class="st0" d="M29.7 11.5c.1 1.9-.5 3.7-1.8 5.2-1 1.1-2.4 1.7-3.9 1.7-1.5.1-2.9-.6-3.7-1.8v6.7h-2.8V9.4c0-1.4 0-2.8-.1-4.2h2.5l.2 2H20c1.5-2.3 4.7-3 7-1.5.4.3.8.6 1.1 1 1.1 1.4 1.6 3.1 1.6 4.8zm-2.9.1c0-1.1-.3-2.2-.8-3.1-.6-.8-1.5-1.3-2.5-1.3-.7 0-1.4.2-1.9.7-.6.5-1 1.1-1.1 1.8-.1.3-.1.6-.1.9v2.1c0 .9.3 1.7.9 2.4.6.6 1.4 1 2.2 1 1 0 1.9-.4 2.5-1.2.5-1 .8-2.2.8-3.3z"/><path id="Path_7381" class="st0" d="M44.4 11.5c.1 1.9-.5 3.7-1.8 5.2-1 1.1-2.4 1.7-3.9 1.7-1.5.1-2.9-.6-3.7-1.8v6.7h-2.8V9.4c0-1.4 0-2.8-.1-4.2h2.5l.2 2h.1c1.5-2.3 4.7-3 7-1.5.4.3.8.6 1.1 1 .9 1.4 1.5 3.1 1.4 4.8zm-2.9.1c0-1.1-.3-2.2-.8-3.1-.6-.8-1.5-1.3-2.5-1.3-.7 0-1.4.2-1.9.7-.6.5-1 1.1-1.1 1.8-.1.3-.2.6-.2.9v2.1c0 .9.3 1.7.9 2.4.6.6 1.4 1 2.2 1 1 0 1.9-.4 2.5-1.2.6-1 .9-2.2.9-3.3z"/><path id="Path_7382" class="st0" d="M60.8 13c0 1.4-.5 2.8-1.6 3.7-1.4 1.1-3.1 1.7-4.8 1.6-1.6.1-3.2-.3-4.6-1.1l.7-2.4c1.2.7 2.7 1.1 4.1 1.1.9.1 1.8-.2 2.5-.7.6-.5.9-1.2.9-1.9s-.3-1.3-.7-1.8c-.7-.6-1.5-1.1-2.4-1.4-3.1-1.2-4.7-2.9-4.7-5.1 0-1.4.6-2.7 1.6-3.6C53 .4 54.6-.1 56.2 0c1.4 0 2.8.2 4 .8l-.7 2.3c-1.1-.6-2.2-.8-3.4-.8-.8-.1-1.7.2-2.4.7-.5.4-.7 1-.7 1.6 0 .7.3 1.3.8 1.7.8.6 1.7 1.1 2.6 1.4 1.3.4 2.4 1.2 3.4 2.2.7.9 1.1 2 1 3.1z"/><path id="Path_7383" class="st0" d="M70.3 7.4h-3.1v6.2c0 1.6.6 2.4 1.7 2.4.4 0 .8 0 1.3-.1l.1 2.2c-.7.2-1.5.3-2.2.3-1 .1-1.9-.3-2.6-1-.7-1-1.1-2.2-.9-3.5V7.3h-1.9V5.2h1.9V2.9l2.5-.9v3.2h3.1v2.2z"/><path id="Path_7384" class="st0" d="M84.4 11.5c.1 1.8-.5 3.5-1.7 4.8-1.2 1.3-2.9 2-4.7 1.9-1.7.1-3.3-.6-4.5-1.9-1.1-1.3-1.7-3-1.7-4.7-.1-1.8.5-3.5 1.7-4.9 1.2-1.3 2.9-2 4.7-1.9 1.7-.1 3.4.6 4.5 1.9 1.2 1.4 1.8 3.1 1.7 4.8zm-3 .1c0-1.1-.2-2.1-.8-3-.5-1-1.5-1.5-2.6-1.5-1-.1-2 .5-2.5 1.5-.5.9-.8 2-.8 3.1s.2 2.1.8 3c.8 1.4 2.5 1.9 4 1.2.5-.3.9-.7 1.2-1.2.5-1 .8-2.1.7-3.1z"/><path id="Path_7385" class="st0" d="M93.6 7.7c-.3-.1-.6-.1-.9-.1-.9 0-1.8.4-2.3 1.1-.5.7-.7 1.6-.7 2.5V18h-2.8V9.2c0-1.5 0-2.8-.1-4h2.5l.1 2.4h.1c.3-.8.8-1.5 1.4-2 .6-.4 1.3-.6 2-.6.2 0 .5 0 .7.1v2.6z"/><path id="Path_7386" class="st0" d="M106.4 11c0 .4 0 .9-.1 1.3h-8.5c0 1.1.4 2.2 1.2 2.9.8.6 1.8.9 2.8.9 1.2 0 2.3-.2 3.5-.6l.4 2c-1.4.6-2.8.8-4.3.8-1.7.1-3.4-.5-4.7-1.8-1.2-1.3-1.8-3-1.7-4.7-.1-1.7.5-3.5 1.6-4.8 1.1-1.4 2.7-2.1 4.5-2.1 1.7-.1 3.2.7 4.2 2.1.7 1.2 1.1 2.6 1.1 4zm-2.8-.7c0-.8-.2-1.5-.6-2.2-.5-.8-1.3-1.2-2.3-1.2-.9 0-1.8.4-2.3 1.2-.5.6-.8 1.4-.8 2.2h6z"/></g><g id="Group_5272" transform="translate(57.664 8.742)"><path id="Path_7387" class="st0" d="M7.4 9.2H5.9l-.8-2.6H2.2l-.7 2.6H0L2.8.5h1.7l2.9 8.7zM4.8 5.5l-.7-2.2c-.1-.3-.2-.8-.5-1.7-.1.4-.2.9-.4 1.7l-.7 2.2h2.3z"/><path id="Path_7388" class="st0" d="M14.4 2.9L12 9.2h-1.4L8.3 2.9h1.5l1.1 3.3c.2.6.3 1.1.5 1.6.1-.5.3-1 .5-1.6L13 2.9h1.4z"/><path id="Path_7389" class="st0" d="M19.5 9.2l-.1-.7c-.4.6-1.1.9-1.8.9-1 .1-1.9-.7-1.9-1.7v-.1c0-1.6 1.3-2.4 3.7-2.4V5c0-.8-.4-1.2-1.3-1.2-.6 0-1.2.2-1.6.5l-.5-1c.7-.4 1.4-.6 2.2-.5 1.6 0 2.5.9 2.5 2.6v2.3c0 .5 0 1 .1 1.5h-1.3zM19.3 6c-1.6 0-2.3.4-2.3 1.3-.1.5.3.9.8 1h.2c.7 0 1.3-.6 1.4-1.3V6z"/><path id="Path_7390" class="st0" d="M23.7 1.9c-.5 0-.8-.4-.8-.9s.4-.8.9-.8c.4 0 .8.4.8.8 0 .5-.3.8-.9.9.1 0 .1 0 0 0zm.8 7.3h-1.4V2.9h1.4v6.3z"/><path id="Path_7391" class="st0" d="M28.4 9.2H27V0h1.4v9.2z"/><path id="Path_7392" class="st0" d="M34.3 9.2l-.1-.7c-.5.5-1.2.9-1.9.8-1 .1-1.9-.7-1.9-1.7v-.1c0-1.6 1.3-2.4 3.7-2.4V5c0-.8-.4-1.2-1.3-1.2-.6 0-1.2.2-1.6.5l-.3-.9c.7-.4 1.4-.6 2.2-.5 1.6 0 2.5.9 2.5 2.6v2.3c0 .5 0 1 .1 1.5l-1.4-.1zM34.1 6c-1.6 0-2.3.4-2.3 1.3-.1.5.3.9.8 1h.2c.7 0 1.3-.6 1.4-1.3V6z"/><path id="Path_7393" class="st0" d="M41.1 9.3c-.8 0-1.6-.4-2-1.1l-.1 1h-1.2c0-.5.1-1.1.1-1.7V0h1.4v3.8c.4-.7 1.2-1.1 2-1 1.5 0 2.6 1.3 2.6 3.2 0 1.9-1.2 3.3-2.8 3.3zm-.3-5.4c-.9 0-1.6.8-1.5 1.7v1.1c0 .9.7 1.6 1.5 1.6 1 0 1.7-.9 1.7-2.2 0-1.4-.7-2.2-1.7-2.2z"/><path id="Path_7394" class="st0" d="M47.4 9.2H46V0h1.4v9.2z"/><path id="Path_7395" class="st0" d="M55 6.4h-4.2c0 1 .7 1.8 1.7 1.9h.2c.6 0 1.2-.1 1.7-.3l.2 1c-.7.3-1.4.4-2.1.4-1.6.1-3-1.1-3.1-2.7v-.5c0-1.9 1.2-3.4 3-3.4C54 2.8 55 4 55 5.8v.6zm-1.3-1c0-1-.5-1.7-1.4-1.7-.9.1-1.5.8-1.5 1.7h2.9z"/><path id="Path_7396" class="st0" d="M63.5 9.3c-1.7 0-3-1.3-3-3V6c-.1-1.7 1.1-3.2 2.8-3.3h.3c1.6 0 3 1.3 3 2.9v.3c.1 1.7-1.1 3.2-2.8 3.3-.1.1-.2.1-.3.1zm0-5.5c-1 0-1.7.9-1.7 2.3 0 1.3.7 2.2 1.6 2.2S65 7.3 65 6c.1-1.3-.5-2.2-1.5-2.2z"/><path id="Path_7397" class="st0" d="M74.1 9.2h-1.4V5.6c0-1.1-.4-1.7-1.3-1.7-.8 0-1.4.7-1.4 1.5v3.7h-1.4V4.7c0-.6 0-1.2-.1-1.8h1.2l.1 1c.4-.7 1.2-1.1 2-1.1 1.3 0 2.2 1 2.2 2.7l.1 3.7z"/><path id="Path_7398" class="st0" d="M83.3 3.9h-1.5V7c0 .8.3 1.2.8 1.2.2 0 .4 0 .6-.1v1.1c-.3.1-.7.2-1.1.2-1.1 0-1.8-.6-1.8-2.2V3.9h-.9v-1h.9V1.7l1.4-.4v1.6h1.5l.1 1z"/><path id="Path_7399" class="st0" d="M90.7 9.2h-1.4V5.6c0-1.1-.4-1.7-1.3-1.7-.8 0-1.4.6-1.4 1.3v4h-1.4V0h1.4v3.8c.4-.7 1.1-1.1 1.9-1 1.3 0 2.1 1 2.1 2.7l.1 3.7z"/><path id="Path_7400" class="st0" d="M97.8 6.4h-4.2c0 1 .7 1.8 1.7 1.9h.3c.6 0 1.2-.1 1.7-.3l.2 1c-.7.3-1.4.4-2.1.4-1.6.1-3-1.1-3.1-2.7v-.5c0-1.9 1.2-3.4 3-3.4 1.6 0 2.6 1.2 2.6 3 0 .1-.1.4-.1.6zm-1.3-1c0-1-.5-1.7-1.4-1.7-.9.1-1.5.8-1.5 1.7h2.9z"/></g></g></svg>