<svg id="google_play_button" xmlns="http://www.w3.org/2000/svg" width="180" height="53.3"><style>.st1{fill:#fff;stroke:#fff;stroke-width:.2;stroke-miterlimit:10}.st8{opacity:.12;enable-background:new}</style><g id="XMLID_115_"><path id="Path_7401" d="M173.3 53.3H6.7c-3.7 0-6.7-3-6.7-6.7v-40C0 3 3 0 6.7 0h166.6c3.7 0 6.7 3 6.7 6.7v40c0 3.6-3 6.6-6.7 6.6z"/></g><g id="XMLID_110_"><g id="XMLID_111_"><path id="XMLID_112_" d="M173.3 1.1c3.1 0 5.6 2.5 5.6 5.6v40c0 3.1-2.5 5.6-5.6 5.6H6.7c-3.1 0-5.6-2.5-5.6-5.6v-40c0-3.1 2.5-5.6 5.6-5.6h166.6m0-1.1H6.7C3 0 0 3 0 6.7v40c0 3.7 3 6.7 6.7 6.7h166.6c3.7 0 6.7-3 6.7-6.7v-40c0-3.7-3-6.7-6.7-6.7z" fill="#a6a6a6"/></g></g><g id="XMLID_91_" transform="translate(55.086 9.102)"><path id="XMLID_108_" class="st1" d="M8.1 4.5c.1 1-.3 1.9-1 2.7-.8.8-1.8 1.2-2.9 1.2-1.1 0-2.2-.4-3-1.2a4.35 4.35 0 0 1 0-6C2.4 0 4.2-.3 5.8.3c.5.2.9.5 1.2.9l-.6.8C5.8 1.4 5 1 4.2 1c-.9 0-1.6.3-2.2.9-.6.6-1 1.5-.9 2.4C1 6 2.3 7.4 4 7.5h.1c.8 0 1.7-.3 2.2-.9.5-.5.7-1 .8-1.6H4.2V4h3.9v.5z"/><path id="XMLID_106_" class="st1" d="M14.3 1.2h-3.6v2.5H14v.9h-3.3v2.5h3.6v1H9.6v-8h4.6v1.1z"/><path id="XMLID_104_" class="st1" d="M18.6 8.2h-1v-7h-2.2v-1h5.5v1h-2.2l-.1 7z"/><path id="XMLID_102_" class="st1" d="M24.8 8.2v-8h1v8h-1z"/><path id="XMLID_100_" class="st1" d="M30.4 8.2h-1v-7h-2.2v-1h5.5v1h-2.2l-.1 7z"/><path id="XMLID_97_" class="st1" d="M43 7.2c-1.6 1.6-4.2 1.6-5.8.1l-.1-.1a4.35 4.35 0 0 1 0-6c1.6-1.6 4.2-1.6 5.8 0 .8.8 1.2 1.9 1.2 3 .2 1.1-.3 2.2-1.1 3zm-5.1-.7c.6.6 1.4.9 2.2.9.8 0 1.6-.3 2.2-.9.6-.6.9-1.4.9-2.3 0-.9-.3-1.7-.9-2.3-.6-.6-1.4-.9-2.2-.9-.8 0-1.6.3-2.2.9-1.2 1.4-1.2 3.4 0 4.6z"/><path id="XMLID_95_" class="st1" d="M45.7 8.2v-8h1.2l3.9 6.2V.2h1v8h-1.1l-4.1-6.5v6.6l-.9-.1z"/></g><path id="XMLID_54_" d="M90.8 29c-3.1 0-5.7 2.5-5.7 5.7 0 3.1 2.5 5.7 5.7 5.7 3.1 0 5.7-2.5 5.7-5.7.1-3.1-2.4-5.6-5.5-5.7h-.2zm0 9.1c-1.9.1-3.5-1.3-3.7-3.2-.1-1.9 1.3-3.5 3.2-3.7 1.9-.1 3.5 1.3 3.7 3.2v.2c.1 1.9-1.3 3.4-3.2 3.5.1 0 .1 0 0 0zM78.4 29c-3.1 0-5.7 2.5-5.7 5.7 0 3.1 2.5 5.7 5.7 5.7 3.1 0 5.7-2.5 5.7-5.7.1-3.1-2.4-5.6-5.5-5.7h-.2zm0 9.1c-1.9.1-3.5-1.3-3.7-3.2-.1-1.9 1.3-3.5 3.2-3.7 1.9-.1 3.5 1.3 3.7 3.2v.2c.1 1.9-1.3 3.4-3.2 3.5.1 0 0 0 0 0zm-14.7-7.4v2.4h5.7c-.1 1.1-.6 2.2-1.3 3-1.2 1.2-2.8 1.8-4.5 1.8-3.5 0-6.4-2.9-6.4-6.4 0-3.5 2.9-6.4 6.4-6.4 1.6 0 3.2.6 4.3 1.7l1.7-1.7c-1.6-1.6-3.8-2.4-6-2.4-4.9-.1-8.9 3.9-8.9 8.7-.1 4.9 3.9 8.9 8.7 8.9h.2c2.3.1 4.6-.8 6.2-2.5 1.4-1.5 2.2-3.6 2.1-5.6 0-.5 0-1-.1-1.5h-8.1zm60.3 1.9c-.7-2.1-2.6-3.5-4.8-3.6-3 0-5.4 2.4-5.4 5.4v.3c-.1 3.1 2.4 5.6 5.5 5.7h.2c1.9 0 3.7-.9 4.7-2.5l-1.9-1.3c-.6 1-1.7 1.6-2.8 1.6-1.2.1-2.3-.6-2.8-1.7l7.6-3.1-.3-.8zm-7.7 1.9c-.1-1.7 1.2-3.2 3-3.3.9-.1 1.7.4 2.1 1.2l-5.1 2.1zm-6.2 5.5h2.5V23.3h-2.5V40zm-4.1-9.8c-.9-.8-1.9-1.3-3.1-1.3-3.1.1-5.6 2.7-5.5 5.9.1 3 2.5 5.3 5.5 5.5 1.1 0 2.2-.4 3-1.3h.1v.8c0 2.2-1.1 3.3-3 3.3-1.3 0-2.4-.8-2.8-2L98 42c.8 2 2.8 3.4 5 3.4 2.9 0 5.4-1.7 5.4-5.9V29.3H106v.9zm-2.8 7.9c-1.9-.2-3.3-1.8-3.2-3.7.1-1.7 1.5-3 3.2-3.2 1.9.2 3.2 2 3 3.9-.2 1.6-1.4 2.8-3 3zm32.5-14.8h-6V40h2.5v-6.3h3.5c2.9.2 5.3-2 5.4-4.9.2-2.9-2-5.3-4.9-5.4-.1-.1-.3-.1-.5-.1zm.1 8.1h-3.6v-5.7h3.6c1.6 0 2.9 1.2 2.9 2.8-.1 1.6-1.4 2.9-2.9 2.9zm15.3-2.4c-1.9-.1-3.6.9-4.5 2.6l2.2.9c.8-1.2 2.5-1.6 3.7-.8.6.4 1 1 1.2 1.7v.2c-.8-.4-1.7-.7-2.6-.7-2.4 0-4.8 1.3-4.8 3.7 0 2.2 1.9 3.7 4.1 3.7 1.3.1 2.5-.5 3.2-1.6h.1V40h2.4v-6.4c.1-3-2.1-4.6-5-4.6zm-.3 9.1c-.8 0-1.9-.4-1.9-1.4 0-1.3 1.4-1.8 2.7-1.8.8 0 1.6.2 2.3.6-.3 1.5-1.5 2.6-3.1 2.6zm14.1-8.8l-2.8 7.2h-.1l-2.9-7.2h-2.7l4.5 10.1-2.5 5.6h2.6l6.8-15.7h-2.9zM142.6 40h2.5V23.3h-2.5V40z" fill="#fff"/><g id="XMLID_40_" transform="translate(13.321 9.502)"><linearGradient id="XMLID_2_" gradientUnits="userSpaceOnUse" x1="-323.226" y1="305.723" x2="-324.526" y2="306.391" gradientTransform="matrix(17.2156 0 0 -33.473 5580.47 10265.872)"><stop offset="0" stop-color="#00a0ff"/><stop offset=".007" stop-color="#00a1ff"/><stop offset=".26" stop-color="#00beff"/><stop offset=".512" stop-color="#00d2ff"/><stop offset=".76" stop-color="#00dfff"/><stop offset="1" stop-color="#00e3ff"/></linearGradient><path id="XMLID_53_" d="M.6.5C.2 1.1 0 1.8 0 2.4v29.5c0 .7.2 1.4.6 1.9l.1.1 16.5-16.5V17L.6.5z" fill="url(#XMLID_2_)"/><linearGradient id="XMLID_3_" gradientUnits="userSpaceOnUse" x1="-317.93" y1="290.454" x2="-320.307" y2="290.454" gradientTransform="matrix(13.5707 0 0 -11.377 4346.33 3321.678)"><stop offset="0" stop-color="#ffe000"/><stop offset=".409" stop-color="#ffbd00"/><stop offset=".775" stop-color="orange"/><stop offset="1" stop-color="#ff9c00"/></linearGradient><path id="XMLID_51_" d="M22.7 22.9l-5.5-5.5V17l5.5-5.5h.1l6.5 3.7c1.8 1 1.8 2.8 0 3.8l-6.5 3.7-.1.2z" fill="url(#XMLID_3_)"/><linearGradient id="XMLID_4_" gradientUnits="userSpaceOnUse" x1="-328.217" y1="298.608" x2="-329.581" y2="300.38" gradientTransform="matrix(22.233 0 0 -17.121 7303.672 5135.415)"><stop offset="0" stop-color="#ff3a44"/><stop offset="1" stop-color="#c31162"/></linearGradient><path id="XMLID_50_" d="M22.8 22.8l-5.6-5.6L.6 33.8c.6.7 1.6.7 2.8.1l19.4-11.1" fill="url(#XMLID_4_)"/><linearGradient id="XMLID_5_" gradientUnits="userSpaceOnUse" x1="-329.32" y1="296.878" x2="-328.711" y2="297.668" gradientTransform="matrix(22.233 0 0 -17.1509 7303.672 5127.64)"><stop offset="0" stop-color="#32a071"/><stop offset=".068" stop-color="#2da771"/><stop offset=".476" stop-color="#15cf74"/><stop offset=".801" stop-color="#06e775"/><stop offset="1" stop-color="#00f076"/></linearGradient><path id="XMLID_48_" d="M22.8 11.5L3.4.5c-.8-.7-2-.6-2.8.1l16.6 16.6 5.6-5.7z" fill="url(#XMLID_5_)"/><g id="XMLID_44_" transform="translate(0 22.686)"><path id="XMLID_46_" d="M22.7 0L3.4 11c-.8.6-1.9.6-2.7 0l-.1.1.1.1c.8.6 1.9.6 2.7 0L22.9.2l-.2-.2z" opacity=".2"/><path id="XMLID_45_" class="st8" d="M.6 10.9C.2 10.4 0 9.7 0 9v.2c0 .7.2 1.4.6 1.9v-.2z"/></g><path id="XMLID_43_" class="st8" d="M29.3 18.9l-6.6 3.8.1.1 6.5-3.7c.8-.3 1.3-1.1 1.4-1.9-.1.7-.6 1.4-1.4 1.7z"/><path id="XMLID_41_" d="M3.4.7l26 14.8c.7.3 1.2.9 1.4 1.7-.1-.8-.6-1.6-1.4-1.9L3.4.5C1.5-.6 0 .3 0 2.4v.2C0 .5 1.5-.4 3.4.7z" opacity=".25" fill="#fff"/></g></svg>