<svg xmlns="http://www.w3.org/2000/svg" viewBox="858 317 266.342 42"><defs><style>.cls-1{fill-rule:evenodd}</style></defs><g id="Group_1" data-name="Group 1" transform="translate(858 317)"><path id="Path_1" data-name="Path 1" class="cls-1" d="M175.168 30.076a9.657 9.657 0 0 1-1.588.512 11.112 11.112 0 0 1-1.946.154 5.932 5.932 0 0 1-2.151-.359 5.523 5.523 0 0 1-1.741-1.076 4.971 4.971 0 0 1-1.178-1.793 7.27 7.27 0 0 1-.41-2.459 6.459 6.459 0 0 1 .615-2.92 4.957 4.957 0 0 1 1.844-2 5.613 5.613 0 0 1 2.817-.717 7.9 7.9 0 0 1 2.049.2 6.424 6.424 0 0 1 1.383.41l.973-4.661a11.72 11.72 0 0 0-1.434-.41 15.683 15.683 0 0 0-1.639-.256 18.8 18.8 0 0 0-1.639-.1 13.363 13.363 0 0 0-4.917.871 10.3 10.3 0 0 0-3.585 2.3 9.638 9.638 0 0 0-2.2 3.432 11.047 11.047 0 0 0-.717 4.149 11.548 11.548 0 0 0 1.28 5.48 9.409 9.409 0 0 0 3.637 3.585 11.974 11.974 0 0 0 5.583 1.28 17.62 17.62 0 0 0 4.149-.512 10.835 10.835 0 0 0 1.383-.461zm8.707 5.173V15.068h-6.2v20.18zM180.8 6.31a3.8 3.8 0 0 0-1.741.41 2.657 2.657 0 0 0-1.127 1.127 3.281 3.281 0 0 0 0 3.176 2.657 2.657 0 0 0 1.127 1.127 3.585 3.585 0 0 0 1.69.41 3.86 3.86 0 0 0 1.793-.41 2.973 2.973 0 0 0 1.127-1.127 3.281 3.281 0 0 0 0-3.176 2.973 2.973 0 0 0-1.127-1.127 3.645 3.645 0 0 0-1.742-.41zm6.4 28.939h6.2V23.622a4.969 4.969 0 0 1 .051-.871c.051-.256.1-.512.154-.717a3.634 3.634 0 0 1 .666-1.127 2.822 2.822 0 0 1 1.024-.871 3.345 3.345 0 0 1 1.485-.359 2.778 2.778 0 0 1 1.793.563 3.03 3.03 0 0 1 1.024 1.537 7.849 7.849 0 0 1 .307 2.3v11.172h6.2V23.315a12.153 12.153 0 0 0-.563-3.841 8.1 8.1 0 0 0-1.485-2.715 5.832 5.832 0 0 0-2.254-1.588 7.254 7.254 0 0 0-2.817-.512 7.736 7.736 0 0 0-2.254.307 6.393 6.393 0 0 0-1.793.82 5.289 5.289 0 0 0-1.28 1.076 5 5 0 0 0-.82 1.076h-.1l-.307-2.817h-5.378c.051.922.1 1.9.1 2.971.051 1.076.051 2.2.051 3.483v13.674zM215.683 5.9h-6.2v29.349h6.2v-6.3l1.537-2 4.866 8.3h7.632l-8.144-12.037 7.12-8.2h-7.478l-4 6.1a9.02 9.02 0 0 0-.717 1.178c-.256.41-.461.82-.717 1.28h-.1zm27.966 24.176a9.657 9.657 0 0 1-1.588.512 11.112 11.112 0 0 1-1.946.154 5.932 5.932 0 0 1-2.151-.359 5.523 5.523 0 0 1-1.741-1.076 4.97 4.97 0 0 1-1.178-1.793 7.27 7.27 0 0 1-.41-2.459 6.459 6.459 0 0 1 .615-2.92 5.339 5.339 0 0 1 1.844-2 5.613 5.613 0 0 1 2.817-.717 7.9 7.9 0 0 1 2.049.2 6.425 6.425 0 0 1 1.383.41l.973-4.661a11.718 11.718 0 0 0-1.434-.41 15.683 15.683 0 0 0-1.639-.256 18.8 18.8 0 0 0-1.639-.1 13.363 13.363 0 0 0-4.917.871 10.3 10.3 0 0 0-3.585 2.3 9.638 9.638 0 0 0-2.2 3.432 11.047 11.047 0 0 0-.717 4.149 11.548 11.548 0 0 0 1.28 5.48 9.409 9.409 0 0 0 3.637 3.585 11.974 11.974 0 0 0 5.583 1.28 17.62 17.62 0 0 0 4.149-.512 10.834 10.834 0 0 0 1.383-.461zm8.707 5.173V15.068h-6.2v20.18zM249.334 6.31a3.8 3.8 0 0 0-1.741.41 2.657 2.657 0 0 0-1.127 1.127 3.281 3.281 0 0 0 0 3.176 2.657 2.657 0 0 0 1.127 1.127 3.585 3.585 0 0 0 1.69.41 3.86 3.86 0 0 0 1.793-.41 2.973 2.973 0 0 0 1.127-1.127 3.281 3.281 0 0 0 0-3.176 2.973 2.973 0 0 0-1.127-1.127 3.8 3.8 0 0 0-1.742-.41zm23 17a14.215 14.215 0 0 0-.41-3.38 7.119 7.119 0 0 0-1.434-2.766 6.644 6.644 0 0 0-2.715-1.9 12.055 12.055 0 0 0-4.149-.717 16.734 16.734 0 0 0-3.329.307 15.977 15.977 0 0 0-2.612.717 10.779 10.779 0 0 0-1.844.82l1.127 4.046a7.18 7.18 0 0 1 1.537-.768c.615-.2 1.229-.41 1.9-.563a9.271 9.271 0 0 1 2.049-.2 5.9 5.9 0 0 1 1.844.256 2.989 2.989 0 0 1 1.127.666 1.714 1.714 0 0 1 .512.871 2.842 2.842 0 0 1 .154.871v.256a22.933 22.933 0 0 0-4.815.461 10.879 10.879 0 0 0-3.688 1.434 6.461 6.461 0 0 0-3.176 5.839 5.789 5.789 0 0 0 .461 2.3 6.977 6.977 0 0 0 1.28 2 6.471 6.471 0 0 0 4.763 1.9 8.68 8.68 0 0 0 3.278-.615 6.242 6.242 0 0 0 2.459-1.844h.1l.359 2.049h5.583a8.138 8.138 0 0 1-.2-1.332 16.647 16.647 0 0 1-.1-1.69c0-.615-.051-1.229-.051-1.844zm-5.993 4.61a2.1 2.1 0 0 1-.051.563 1.515 1.515 0 0 1-.1.512 3.869 3.869 0 0 1-.666 1.178 3.541 3.541 0 0 1-1.127.82 3.437 3.437 0 0 1-1.434.307 3.1 3.1 0 0 1-1.229-.256 1.92 1.92 0 0 1-.871-.82 2.694 2.694 0 0 1-.307-1.332 2.47 2.47 0 0 1 .768-1.9 4.04 4.04 0 0 1 2.049-.973 12.918 12.918 0 0 1 2.971-.307v2.2zm9.271 7.324h6.2V25a3.15 3.15 0 0 1 .051-.717 2.6 2.6 0 0 1 .1-.666 3.665 3.665 0 0 1 1.434-2.3 4.506 4.506 0 0 1 2.817-.871 4.98 4.98 0 0 1 .922.051c.256.051.512.051.768.1V14.71c-.2-.051-.41-.051-.615-.1-.2 0-.41-.051-.717-.051a4.04 4.04 0 0 0-1.537.256 5.394 5.394 0 0 0-1.537.768 5.477 5.477 0 0 0-1.332 1.332 8.268 8.268 0 0 0-1.024 1.9h-.154l-.256-3.739H275.4c.051.563.051 1.178.1 1.844s.051 1.383.051 2.151v16.178zm12.6 0h17.363v-5.02H296v-.1a18.408 18.408 0 0 0 1.639-1.793 59.368 59.368 0 0 1 1.639-1.9l5.993-7.632v-3.79h-16.344v5.02h8.707v.1c-.563.563-1.076 1.178-1.537 1.741-.512.563-1.024 1.178-1.588 1.844l-6.3 7.99zm21.1.359a3.179 3.179 0 0 0 1.588-.41 2.593 2.593 0 0 0 1.024-1.076 3.161 3.161 0 0 0 .359-1.588 3.379 3.379 0 0 0-.41-1.639 2.593 2.593 0 0 0-1.024-1.076 3.358 3.358 0 0 0-1.485-.41 3.129 3.129 0 0 0-1.537.41A2.594 2.594 0 0 0 306.8 30.9a3.162 3.162 0 0 0-.359 1.588 3.814 3.814 0 0 0 .359 1.588 2.594 2.594 0 0 0 1.024 1.076 2.15 2.15 0 0 0 1.488.455zm4.661 6.2h4.968v-8.04h.051a4.379 4.379 0 0 0 .973.973 5.765 5.765 0 0 0 1.383.666 6.585 6.585 0 0 0 1.793.256 5.844 5.844 0 0 0 2.1-.359 5.929 5.929 0 0 0 1.946-1.024 7.352 7.352 0 0 0 1.639-1.69 9.534 9.534 0 0 0 1.127-2.407 11.94 11.94 0 0 0 .41-3.176 10.566 10.566 0 0 0-.563-3.483 8.009 8.009 0 0 0-1.434-2.612 7.084 7.084 0 0 0-2.1-1.639 5.994 5.994 0 0 0-2.51-.563 6.475 6.475 0 0 0-3.073.666 5.88 5.88 0 0 0-2.254 1.946h-.051l-.2-2.254h-4.3c.051.768.051 1.588.1 2.51 0 .922.051 1.9.051 2.92V41.8zm4.968-15.724v-.459c0-.154.051-.307.051-.461a3.175 3.175 0 0 1 .615-1.332 3.319 3.319 0 0 1 1.024-.871 2.988 2.988 0 0 1 1.332-.307 2.764 2.764 0 0 1 1.844.615 3.6 3.6 0 0 1 1.127 1.588 6.41 6.41 0 0 1 .359 2.3 6.755 6.755 0 0 1-.41 2.407 3.42 3.42 0 0 1-1.178 1.588 3.149 3.149 0 0 1-1.844.563 2.988 2.988 0 0 1-1.332-.307 3.319 3.319 0 0 1-1.024-.871 3.376 3.376 0 0 1-.563-1.229 1.578 1.578 0 0 1-.051-.512V26.08zm13.266 9.168h4.968V11.739h-4.968z" transform="translate(-77.902 -2.878)"/><path id="Path_2" data-name="Path 2" d="M511.649 19.71h.563a1.371 1.371 0 0 0 .563-.1.443.443 0 0 0 .154-.307c0-.1 0-.154-.051-.2a.707.707 0 0 0-.2-.154 1.137 1.137 0 0 0-.461-.051h-.517v.82zm-.461 1.588v-2.869h.973a1.317 1.317 0 0 1 .717.1.918.918 0 0 1 .358.256.681.681 0 0 1 .154.41.77.77 0 0 1-.2.563.848.848 0 0 1-.615.256 1.118 1.118 0 0 1 .256.154 3.223 3.223 0 0 1 .41.563l.359.563h-.563l-.256-.461a3.344 3.344 0 0 0-.461-.666.74.74 0 0 0-.359-.1h-.261V21.3zm1.127-3.688a2.152 2.152 0 0 0-1.076.307 2.1 2.1 0 0 0-.819.82 2.193 2.193 0 0 0-.307 1.127 2.016 2.016 0 0 0 .307 1.076 2.1 2.1 0 0 0 .819.82 2.152 2.152 0 0 0 1.076.307 2.015 2.015 0 0 0 1.076-.307 2.1 2.1 0 0 0 .82-.82 2.151 2.151 0 0 0 .307-1.076 2.193 2.193 0 0 0-.307-1.127 2.1 2.1 0 0 0-.82-.82 1.893 1.893 0 0 0-1.076-.307zm0-.41a2.312 2.312 0 0 1 1.28.359 2.233 2.233 0 0 1 .973.973 2.652 2.652 0 0 1 0 2.663 2.536 2.536 0 0 1-.973.973 2.652 2.652 0 0 1-2.663 0 2.537 2.537 0 0 1-.973-.973 2.653 2.653 0 0 1 0-2.663 2.537 2.537 0 0 1 .973-.973 3.081 3.081 0 0 1 1.383-.359z" transform="translate(-248.585 -8.39)"/><path id="Path_3" data-name="Path 3" d="M21 0a21 21 0 1 0 21 21A21.029 21.029 0 0 0 21 0zm0 36.878A15.878 15.878 0 1 1 36.878 21 15.892 15.892 0 0 1 21 36.878z"/><path id="Path_4" data-name="Path 4" class="cls-1" d="M36.771 36.79a8.6 8.6 0 0 1-3.585.82 5.253 5.253 0 0 1-4.046-1.588 4.649 4.649 0 0 1-1.024-2.2H36v-2.2h-8.3V31.1a5.882 5.882 0 0 1 .051-.973h8.3v-2.249h-7.885a4.8 4.8 0 0 1 4.866-3.739 8.995 8.995 0 0 1 3.483.768l.871-3.585a11.629 11.629 0 0 0-4.712-.922 9.307 9.307 0 0 0-7.222 3.227 9.565 9.565 0 0 0-2.152 4.251h-2.1v2.2h1.741c0 .307-.051.615-.051.922v.512H21.2v2.2h2a9.655 9.655 0 0 0 1.741 4.1 9.429 9.429 0 0 0 7.63 3.588 10.749 10.749 0 0 0 4.866-1.178z" transform="translate(-10.341 -9.951)"/><path id="Path_5" data-name="Path 5" d="M94.456 0A21.1 21.1 0 0 0 79.5 6.249a24.585 24.585 0 0 1 0 29.5A21 21 0 1 0 94.456 0zm3.483 30.015v3.022h-3.38v-2.766a14.808 14.808 0 0 1-5.276-1.229l.973-4.149a11.874 11.874 0 0 0 5.224 1.332c1.537 0 2.561-.41 2.561-1.383 0-.922-.871-1.485-3.073-2.151-3.227-1.024-5.48-2.561-5.48-5.583 0-2.715 1.9-4.866 5.276-5.532V8.861h3.38v2.51a12.6 12.6 0 0 1 4.507.973l-.973 3.944a11.123 11.123 0 0 0-4.507-1.024c-1.741 0-2.3.615-2.3 1.28 0 .768 1.024 1.332 3.534 2.2 3.739 1.229 5.122 2.92 5.122 5.634-.056 2.722-2.003 5.022-5.588 5.637z" transform="translate(-38.781)"/></g></svg>