<svg xmlns="http://www.w3.org/2000/svg" viewBox="0 0 790 128"><defs><style>.cls-2{fill-rule:evenodd}</style><clipPath id="clip-cinkciarz_pl_logo"><path d="M0 0h790v128H0z"/></clipPath></defs><g id="cinkciarz_pl_logo" clip-path="url(#clip-cinkciarz_pl_logo)"><g id="Group_10" data-name="Group 10" transform="translate(-2176 -556)"><g id="Group_6" data-name="Group 6"><path id="Path_1" data-name="Path 1" class="cls-2" d="M85.37 52.7a20.689 20.689 0 0 1-4.77 1.485 33.546 33.546 0 0 1-6 .516 19.072 19.072 0 0 1-6.452-1.1 16.6 16.6 0 0 1-5.29-3.29 14.676 14.676 0 0 1-3.548-5.419 20.061 20.061 0 0 1-1.29-7.419 19.93 19.93 0 0 1 1.935-8.968 15.129 15.129 0 0 1 5.677-6.065 16.863 16.863 0 0 1 8.645-2.194 29.733 29.733 0 0 1 6.323.581 17.635 17.635 0 0 1 4.258 1.29l2.963-14.19a26.986 26.986 0 0 0-4.387-1.29 30.7 30.7 0 0 0-4.968-.774 43.918 43.918 0 0 0-5.032-.323 41.078 41.078 0 0 0-14.968 2.581 29.748 29.748 0 0 0-10.9 7.032 28.943 28.943 0 0 0-6.648 10.387 35.829 35.829 0 0 0-2.258 12.71c.064 6.452 1.355 12 4 16.71A26.593 26.593 0 0 0 53.821 65.8c4.779 2.579 10.452 3.8 17.033 3.869a56.676 56.676 0 0 0 6.839-.387A44.843 44.843 0 0 0 83.5 68.25a21.565 21.565 0 0 0 4.258-1.484z" transform="translate(2386.759 586.202)"/><path id="Rectangle_1" data-name="Rectangle 1" transform="translate(2479.871 593.097)" d="M0 0h18.903v61.484H0z"/><path id="Path_2" data-name="Path 2" class="cls-2" d="M57.139 1.62a10.959 10.959 0 0 0-5.355 1.29A9.331 9.331 0 0 0 48.3 6.33a10.072 10.072 0 0 0-1.29 4.9 9.311 9.311 0 0 0 1.226 4.839 9.155 9.155 0 0 0 3.419 3.419 10.455 10.455 0 0 0 5.226 1.29 11.294 11.294 0 0 0 5.484-1.29 9.144 9.144 0 0 0 4.71-8.258 10.266 10.266 0 0 0-1.29-4.9 9.155 9.155 0 0 0-3.42-3.42 10.116 10.116 0 0 0-5.226-1.29z" transform="translate(2432.28 564.832)"/><path id="Path_3" data-name="Path 3" class="cls-2" d="M52.036 68.433h18.9V32.949c0-.9.064-1.742.129-2.581a7.3 7.3 0 0 1 .516-2.194 12.448 12.448 0 0 1 2-3.419 10.689 10.689 0 0 1 3.161-2.71 9.932 9.932 0 0 1 4.516-1.1 8.875 8.875 0 0 1 5.548 1.677 9.27 9.27 0 0 1 3.1 4.645 22.725 22.725 0 0 1 .968 6.968V68.3h18.9V32.111A38.033 38.033 0 0 0 108.1 20.3a21.678 21.678 0 0 0-4.581-8.258 18.555 18.555 0 0 0-6.9-4.9 22.186 22.186 0 0 0-8.647-1.612 25.479 25.479 0 0 0-6.9.968 21.657 21.657 0 0 0-5.355 2.452 20.25 20.25 0 0 0-3.935 3.226 16.992 16.992 0 0 0-2.52 3.224h-.452l-.9-8.581H51.52c.129 2.774.258 5.742.323 9.032.064 3.226.129 6.774.129 10.581v42z" transform="translate(2456.867 586.147)"/><path id="Path_4" data-name="Path 4" class="cls-2" d="M81.023 1.43H62.12v89.419h18.9v-19.29l4.71-6.065 14.774 25.29h23.226L98.894 54.2l21.742-24.9H97.927L85.6 47.817a65.862 65.862 0 0 0-2.194 3.548c-.774 1.29-1.419 2.516-2.129 3.871h-.258V1.43z" transform="translate(2514.654 563.796)"/><path id="Path_5" data-name="Path 5" class="cls-2" d="M117.71 52.7a20.688 20.688 0 0 1-4.774 1.484 33.546 33.546 0 0 1-6 .516 19.072 19.072 0 0 1-6.452-1.1 16.6 16.6 0 0 1-5.29-3.29 14.676 14.676 0 0 1-3.548-5.419 20.061 20.061 0 0 1-1.29-7.419 19.93 19.93 0 0 1 1.935-8.968 15.129 15.129 0 0 1 5.677-6.065 16.863 16.863 0 0 1 8.645-2.194 29.734 29.734 0 0 1 6.323.581 17.636 17.636 0 0 1 4.258 1.29l2.968-14.194a26.986 26.986 0 0 0-4.387-1.29 30.7 30.7 0 0 0-4.968-.774 43.917 43.917 0 0 0-5.032-.323 41.078 41.078 0 0 0-14.969 2.586 29.748 29.748 0 0 0-10.9 7.032 28.942 28.942 0 0 0-6.648 10.387A35.828 35.828 0 0 0 71 38.25c.065 6.452 1.355 12 4 16.71A26.594 26.594 0 0 0 86.161 65.8c4.774 2.581 10.452 3.806 17.032 3.871a56.675 56.675 0 0 0 6.839-.387 44.844 44.844 0 0 0 5.806-1.032 21.567 21.567 0 0 0 4.258-1.484z" transform="translate(2563.064 586.202)"/><path id="Rectangle_2" data-name="Rectangle 2" transform="translate(2688.452 593.097)" d="M0 0h18.903v61.484H0z"/><path id="Path_6" data-name="Path 6" class="cls-2" d="M89.424 1.62a10.531 10.531 0 0 0-5.29 1.29 9.331 9.331 0 0 0-3.484 3.42 10.072 10.072 0 0 0-1.29 4.9 9.31 9.31 0 0 0 1.226 4.839 9.155 9.155 0 0 0 3.419 3.419 10.455 10.455 0 0 0 5.226 1.29 11.3 11.3 0 0 0 5.484-1.29 9.144 9.144 0 0 0 4.71-8.258 10.266 10.266 0 0 0-1.29-4.9 8.713 8.713 0 0 0-3.42-3.42 10.884 10.884 0 0 0-5.291-1.29z" transform="translate(2608.64 564.832)"/><path id="Path_7" data-name="Path 7" class="cls-2" d="M137.792 32.22A38.039 38.039 0 0 0 136.5 21.9a23.253 23.253 0 0 0-4.387-8.516 20.2 20.2 0 0 0-8.193-5.742 34.38 34.38 0 0 0-12.71-2.129 54.246 54.246 0 0 0-10.129.9 49.913 49.913 0 0 0-7.935 2.129 41.944 41.944 0 0 0-5.546 2.581l3.484 12.323a27.459 27.459 0 0 1 4.774-2.323 31.973 31.973 0 0 1 5.806-1.677 33.757 33.757 0 0 1 6.258-.645 17.464 17.464 0 0 1 5.677.774 8 8 0 0 1 3.355 2 6.386 6.386 0 0 1 1.613 2.645 7.879 7.879 0 0 1 .387 2.71v.77a72.761 72.761 0 0 0-14.645 1.419 35.448 35.448 0 0 0-11.226 4.323 20.211 20.211 0 0 0-7.227 7.358 20.81 20.81 0 0 0-2.516 10.387 19.015 19.015 0 0 0 1.355 7.1 18.278 18.278 0 0 0 10.064 10.191 20.941 20.941 0 0 0 8.258 1.548 24.814 24.814 0 0 0 9.935-1.935 19.605 19.605 0 0 0 7.484-5.613h.387l1.1 6.194h17.032a30.692 30.692 0 0 1-.581-4.065c-.129-1.548-.258-3.29-.323-5.1s-.065-3.677-.065-5.677V32.22zm-18.258 13.935a14.019 14.019 0 0 1-.065 1.677c-.065.581-.194 1.1-.258 1.613a9.862 9.862 0 0 1-2.065 3.548 12.038 12.038 0 0 1-3.419 2.516 9.86 9.86 0 0 1-4.323.968 8.915 8.915 0 0 1-3.804-.777 6.053 6.053 0 0 1-2.645-2.452 7.9 7.9 0 0 1-.968-4.065 7.717 7.717 0 0 1 2.387-5.742 13.493 13.493 0 0 1 6.323-3.032 41.735 41.735 0 0 1 8.968-.9v6.645z" transform="translate(2630.337 586.038)"/><path id="Path_8" data-name="Path 8" class="cls-2" d="M93.776 68.488h18.9V37.326c0-.774 0-1.484.065-2.258.065-.71.193-1.419.258-2.065a11.8 11.8 0 0 1 4.323-7.1 14.071 14.071 0 0 1 8.645-2.645c1.032 0 2 .065 2.774.129.774.129 1.613.258 2.323.323V5.907c-.645-.129-1.29-.258-1.871-.323a20.759 20.759 0 0 0-2.129-.065 17.3 17.3 0 0 0-4.645.71 16.8 16.8 0 0 0-8.71 6.258 20.558 20.558 0 0 0-3.032 5.806h-.516L109.389 7H93.26c.129 1.742.258 3.613.258 5.548q.1 3 .194 6.581c0 2.387.065 5.1.065 8.065v41.29z" transform="translate(2684.417 586.093)"/><path id="Path_9" data-name="Path 9" class="cls-2" d="M99.324 67.234h52.839V52.008h-29.226v-.258a67.528 67.528 0 0 0 5.032-5.419c1.613-1.935 3.29-3.806 4.9-5.806l18.258-23.29V5.75h-49.673v15.226h26.581v.258a319.954 319.954 0 0 0-4.774 5.29c-1.484 1.742-3.1 3.548-4.839 5.548L99.26 56.331v10.9z" transform="translate(2717.127 587.347)"/><path id="Path_10" data-name="Path 10" class="cls-2" d="M116.654 31.151a9.366 9.366 0 0 0 4.774-1.226 8.178 8.178 0 0 0 3.161-3.29 9.494 9.494 0 0 0 1.1-4.774 11.443 11.443 0 0 0-1.161-4.9 8.288 8.288 0 0 0-3.1-3.226 8.79 8.79 0 0 0-4.581-1.161 9.028 9.028 0 0 0-4.645 1.161 8.177 8.177 0 0 0-3.161 3.29 10.781 10.781 0 0 0-1.161 4.9 9.515 9.515 0 0 0 1.161 4.774 8.445 8.445 0 0 0 3.1 3.29 8.555 8.555 0 0 0 4.513 1.162z" transform="translate(2764.12 624.527)"/><path id="Path_11" data-name="Path 11" class="cls-2" d="M111.876 77.738h15.1V53.286h.194a10.624 10.624 0 0 0 2.968 2.9 16.226 16.226 0 0 0 4.258 2 17.79 17.79 0 0 0 5.419.71 20.147 20.147 0 0 0 6.452-1.032 22.1 22.1 0 0 0 6-3.1 20.28 20.28 0 0 0 4.968-5.226 24.5 24.5 0 0 0 3.355-7.419 34.063 34.063 0 0 0 1.226-9.613A31.269 31.269 0 0 0 160.134 22a23.877 23.877 0 0 0-4.452-7.871 18.1 18.1 0 0 0-6.452-4.9 17.313 17.313 0 0 0-7.613-1.742 20.87 20.87 0 0 0-9.417 2.058 17.56 17.56 0 0 0-6.774 5.935h-.194l-.71-6.839H111.36c.129 2.323.194 4.839.258 7.548.065 2.774.129 5.742.129 8.968v52.581zm15.161-47.806a10.926 10.926 0 0 1 .065-1.419 10.007 10.007 0 0 1 .258-1.355 9.547 9.547 0 0 1 1.871-4 9.713 9.713 0 0 1 3.161-2.71 9.431 9.431 0 0 1 4-1.032 9.185 9.185 0 0 1 5.677 1.806 11.028 11.028 0 0 1 3.419 4.9 19.844 19.844 0 0 1 1.161 7.032 19.4 19.4 0 0 1-1.226 7.29 11.038 11.038 0 0 1-3.548 4.839 9.087 9.087 0 0 1-5.613 1.742 8.335 8.335 0 0 1-4-.968 9.219 9.219 0 0 1-3.1-2.581 9.675 9.675 0 0 1-1.742-3.677 12.931 12.931 0 0 1-.258-1.548 14.033 14.033 0 0 1-.065-1.677v-6.642z" transform="translate(2783.092 596.778)"/><path id="Rectangle_3" data-name="Rectangle 3" transform="translate(2950.516 583.032)" d="M0 0h15.097v71.548H0z"/></g><g id="Group_7" data-name="Group 7"><path id="Path_12" data-name="Path 12" d="M64 0a64 64 0 1 0 64 64A63.989 63.989 0 0 0 64 0zm0 112.387A48.387 48.387 0 1 1 112.387 64 48.4 48.4 0 0 1 64 112.387z" transform="translate(2176 556)"/><path id="Path_13" data-name="Path 13" class="cls-2" d="M52.549 54.865a26.953 26.953 0 0 1-10.9 2.452c-4.774 0-9.226-1.419-12.323-4.839a15.494 15.494 0 0 1-3.161-6.71H50.1v-6.773H24.872v-1.549c0-1.032 0-2 .065-2.968H50.1v-6.71H26.356a16.362 16.362 0 0 1 3.032-6.194 14.8 14.8 0 0 1 11.742-5.16 28.376 28.376 0 0 1 10.581 2.258l2.645-10.9A35.825 35.825 0 0 0 40.033 4.93a28.785 28.785 0 0 0-22.065 9.806 30.966 30.966 0 0 0-6.452 13.032H5.13v6.774h5.355c0 .968-.065 1.935-.065 2.839v1.613H5.259v6.774h6.129a27.953 27.953 0 0 0 5.355 12.387c5.355 7.032 13.935 10.9 23.29 10.9a32.378 32.378 0 0 0 14.9-3.613z" transform="translate(2203.967 582.876)"/><path id="Path_14" data-name="Path 14" d="M64.778 0A63.9 63.9 0 0 0 19.23 19.032 74.583 74.583 0 0 1 34.2 64a74.583 74.583 0 0 1-14.97 44.968A64 64 0 1 0 64.778 0zm10.581 91.484v9.226H65.036v-8.452a42.262 42.262 0 0 1-16.065-3.806l2.969-12.581a36.581 36.581 0 0 0 15.871 4c4.645 0 7.806-1.29 7.806-4.194 0-2.839-2.645-4.516-9.419-6.645-9.806-3.161-16.774-7.806-16.774-16.968 0-8.258 5.742-14.774 16.065-16.839v-8.257h10.322v7.613a37.457 37.457 0 0 1 13.677 2.9l-2.9 12.065a32.76 32.76 0 0 0-13.677-3.1c-5.355 0-6.968 1.871-6.968 3.871 0 2.258 3.1 4 10.71 6.71 11.419 3.742 15.613 8.9 15.613 17.161-.066 8.393-6.066 15.36-16.907 17.296z" transform="translate(2280.834 556)"/></g></g></g></svg>